<?xml version="1.0" standalone="no"?>
<!DOCTYPE svg PUBLIC "-//W3C//DTD SVG 1.1//EN" "http://www.w3.org/Graphics/SVG/1.1/DTD/svg11.dtd">
<svg xmlns="http://www.w3.org/2000/svg">
<metadata>Copyright (C) 2017 by original authors @ fontello.com</metadata>
<defs>
<font id="financeicon" horiz-adv-x="1000" >
<font-face font-family="financeicon" font-weight="400" font-stretch="normal" units-per-em="1000" ascent="850" descent="-150" />
<missing-glyph horiz-adv-x="1000" />
<glyph glyph-name="step-ok" unicode="&#x2714;" d="M561-106c-56-61-147-61-203 0l-316 342c-56 61-56 160 0 221 56 60 148 60 204 0l188-204c14-15 37-15 51 0l509 551c56 61 147 61 203 0 27-29 42-69 42-110 0-41-15-81-42-110l-636-690z" horiz-adv-x="1250" />

<glyph glyph-name="up-open" unicode="&#xe800;" d="M939 107l-92-92q-11-10-26-10t-25 10l-296 297-296-297q-11-10-25-10t-25 10l-93 92q-11 11-11 26t11 25l414 414q11 10 25 10t25-10l414-414q11-11 11-25t-11-26z" horiz-adv-x="1000" />

<glyph glyph-name="right-open" unicode="&#xe801;" d="M618 361l-414-415q-11-10-25-10t-25 10l-93 93q-11 11-11 25t11 25l296 297-296 296q-11 11-11 25t11 25l93 93q10 11 25 11t25-11l414-414q10-11 10-25t-10-25z" horiz-adv-x="714.3" />

<glyph glyph-name="left-open" unicode="&#xe802;" d="M654 682l-297-296 297-297q10-10 10-25t-10-25l-93-93q-11-10-25-10t-25 10l-414 415q-11 10-11 25t11 25l414 414q10 11 25 11t25-11l93-93q10-10 10-25t-10-25z" horiz-adv-x="714.3" />

<glyph glyph-name="down-open" unicode="&#xe803;" d="M939 399l-414-413q-10-11-25-11t-25 11l-414 413q-11 11-11 26t11 25l93 92q10 11 25 11t25-11l296-296 296 296q11 11 25 11t26-11l92-92q11-11 11-25t-11-26z" horiz-adv-x="1000" />

<glyph glyph-name="mail" unicode="&#xe804;" d="M929 11v428q-18-20-39-36-149-115-238-189-28-24-46-37t-48-28-57-13h-2q-26 0-57 13t-48 28-46 37q-88 74-238 189-21 16-39 36v-428q0-7 6-13t12-5h822q7 0 12 5t6 13z m0 586v14t-1 7-1 7-3 5-5 4-8 2h-822q-7 0-12-6t-6-12q0-94 83-159 107-84 223-176 4-3 20-17t25-21 25-17 28-16 24-5h2q11 0 24 5t28 16 25 17 25 21 20 17q116 92 224 176 30 24 56 65t26 73z m71 21v-607q0-37-26-63t-63-27h-822q-36 0-63 27t-26 63v607q0 37 26 63t63 26h822q37 0 63-26t26-63z" horiz-adv-x="1000" />

<glyph glyph-name="heart" unicode="&#xe805;" d="M500-79q-14 0-25 10l-348 336q-5 5-15 15t-31 37-38 54-30 67-13 77q0 123 71 192t196 70q34 0 70-12t67-33 54-38 42-38q20 20 42 38t54 38 67 33 70 12q125 0 196-70t71-192q0-123-128-251l-347-335q-10-10-25-10z" horiz-adv-x="1000" />

<glyph glyph-name="heart-empty" unicode="&#xe806;" d="M929 517q0 46-12 80t-31 55-46 33-52 18-55 4-62-14-62-36-48-40-34-34q-10-13-27-13t-27 13q-14 15-34 34t-48 40-62 36-62 14-55-4-52-18-46-33-31-55-12-80q0-93 105-198l324-312 324 312q105 105 105 198z m71 0q0-123-128-251l-347-335q-10-10-25-10t-25 10l-348 336q-5 5-15 15t-31 37-38 54-30 67-13 77q0 123 71 192t196 70q34 0 70-12t67-33 54-38 42-38q20 20 42 38t54 38 67 33 70 12q125 0 196-70t71-192z" horiz-adv-x="1000" />

<glyph glyph-name="block" unicode="&#xe807;" d="M480 830q200 0 340-140t140-340q0-198-140-339t-340-141q-198 0-339 141t-141 339q0 200 141 340t339 140z m258-220z m-622-260q0-132 82-230l514 514q-100 82-232 82-152 0-258-107t-106-259z m106-258z m258-106q152 0 259 107t107 257q0 130-82 232l-514-514q98-82 230-82z" horiz-adv-x="960" />

<glyph glyph-name="menu" unicode="&#xf0c9;" d="M857 100v-71q0-15-10-25t-26-11h-785q-15 0-25 11t-11 25v71q0 15 11 25t25 11h785q15 0 26-11t10-25z m0 286v-72q0-14-10-25t-26-10h-785q-15 0-25 10t-11 25v72q0 14 11 25t25 10h785q15 0 26-10t10-25z m0 285v-71q0-14-10-25t-26-11h-785q-15 0-25 11t-11 25v71q0 15 11 26t25 10h785q15 0 26-10t10-26z" horiz-adv-x="857.1" />

<glyph glyph-name="mail-alt" unicode="&#xf0e0;" d="M1000 454v-443q0-37-26-63t-63-27h-822q-36 0-63 27t-26 63v443q25-27 56-49 202-137 278-192 32-24 51-37t53-27 61-13h2q28 0 61 13t53 27 51 37q95 68 278 192 32 22 56 49z m0 164q0-44-27-84t-68-69q-210-146-262-181-5-4-23-17t-30-22-29-18-32-15-28-5h-2q-12 0-27 5t-32 15-30 18-30 22-23 17q-51 35-147 101t-114 80q-35 23-65 64t-31 77q0 43 23 72t66 29h822q36 0 63-26t26-63z" horiz-adv-x="1000" />

<glyph glyph-name="chevron-left" unicode="&#xf104;" d="M350 546q0-7-6-12l-219-220 219-219q6-6 6-13t-6-13l-28-28q-5-5-12-5t-13 5l-260 261q-6 5-6 12t6 13l260 260q5 6 13 6t12-6l28-28q6-5 6-13z" horiz-adv-x="357.1" />

<glyph glyph-name="chevron-right" unicode="&#xf105;" d="M332 314q0-7-5-12l-261-261q-5-5-12-5t-13 5l-28 28q-6 6-6 13t6 13l219 219-219 220q-6 5-6 12t6 13l28 28q5 6 13 6t12-6l261-260q5-5 5-13z" horiz-adv-x="357.1" />

<glyph glyph-name="chevron-up" unicode="&#xf106;" d="M600 189q0-7-6-12l-28-28q-5-6-12-6t-13 6l-220 219-219-219q-5-6-13-6t-12 6l-28 28q-6 5-6 12t6 13l260 260q5 6 12 6t13-6l260-260q6-5 6-13z" horiz-adv-x="642.9" />

<glyph glyph-name="chevron-down" unicode="&#xf107;" d="M600 439q0-7-6-12l-260-261q-5-5-13-5t-12 5l-260 261q-6 5-6 12t6 13l28 28q5 6 12 6t13-6l219-219 220 219q5 6 13 6t12-6l28-28q6-5 6-13z" horiz-adv-x="642.9" />

<glyph glyph-name="arrow_input" unicode="&#xfe3e;" d="M1525 819c-40 42-106 42-146 0l-601-621-601 621c-40 42-106 42-147 0-40-42-40-110 0-152l674-697c20-21 47-31 74-31 27 0 53 10 74 31l673 697c41 42 41 110 0 152z" horiz-adv-x="1556" />

<glyph glyph-name="arrow" unicode="&#xfe40;" d="M959-109l750 750c48 48 48 126 0 173-48 48-125 48-173 0l-664-664-663 664c-48 48-125 48-173 0-48-47-48-125 0-173l750-750c24-24 55-36 86-36 32 0 63 12 87 36z" horiz-adv-x="1750" />

<glyph glyph-name="like" unicode="&#x1f44d;" d="M957 475c-21 29-51 47-86 53-7 1-14 1-21 1l-219 0 0 143c0 98-80 178-178 178-16 0-30-9-37-24l-183-413c-3-5-4-10-4-16l0-504c0-23 18-41 41-41l517 0c0 0 0 0 1 0 31 0 61 12 85 32 25 20 41 49 45 81l64 412c5 35-4 70-25 98z m-55-86l-63-412c-4-25-26-44-51-44 0 0-1 0-1 0 0 0 0 0 0 0l-477 0 0 456 168 377c41-11 72-49 72-94l0-183c0-22 18-40 41-40l259 0c0 0 0 0 0 0 3 0 6-1 9-1 13-2 25-9 33-20 9-11 12-25 10-39z m-632-456l-138 0c-28 0-51 23-51 51l0 321c0 29 23 52 51 52l138 0c22 0 40 18 40 40 0 22-18 40-40 40l-138 0c-73 0-132-59-132-132l0-321c0-72 59-132 132-132l138 0c22 0 40 18 40 41 0 22-18 40-40 40z" horiz-adv-x="1000" />

<glyph glyph-name="wallet" unicode="&#x1f45b;" d="M265 664l397 109-21 43c-14 27-47 39-75 25l-356-177 55 0z m520 106c-4 0-9-1-14-2l-94-26-285-78 324 0 141 0-18 65c-6 24-29 41-54 41z m130-145l-13 0-17 0-17 0-133 0-486 0-64 0-54 0-10 0-33 0c-18 0-34-8-44-21-5-6-8-13-10-20-2-5-2-10-2-15l0-6 0-64 0-554c0-31 25-56 56-56l827 0c31 0 56 25 56 56l0 157-332 0c-53 0-95 42-95 95l0 51 0 18 0 17 0 38c0 26 10 50 27 67 14 15 34 25 56 28 4 0 8 0 12 0l286 0 17 0 17 0 12 0 0 153c0 31-25 56-56 56z m95-262c-5 5-12 9-19 12-6 1-12 3-18 3l-2 0-1 0-17 0-63 0-251 0c-31 0-56-25-56-56l0-28 0-18 0-17 0-62c0-31 25-56 56-56l332 0 2 0c6 0 12 1 18 3 7 2 14 7 19 12 12 10 19 25 19 41l0 125c0 16-7 31-19 41z m-254-115c0-15-13-28-28-28l-19 0c-15 0-28 13-28 28l0 19c0 9 4 17 11 22 5 3 11 6 17 6l5 0 14 0c15 0 28-13 28-28l0-19 0 0z" horiz-adv-x="1043" />

<glyph glyph-name="user" unicode="&#x1f464;" d="M382 362c111 0 201 109 201 244 0 135-29 244-201 244-171 0-201-109-201-244 0-135 90-244 201-244z m-379-377c0 16 0 5 0 0l0 0z m759-9c0 4 0 30 0 0l0 0z m-1 23c-3 235-34 302-269 344 0 0-33-42-110-42-77 0-110 42-110 42-232-42-265-108-269-336 0-19 0-20 0-18 0-4 0-11 0-25 0 0 56-112 379-112 324 0 380 112 380 112 0 9 0 15 0 19 0-2 0 1-1 16z" horiz-adv-x="767" />

<glyph glyph-name="page" unicode="&#x1f4c4;" d="M820 553c-8 21-19 37-31 50l-203 203c-12 12-29 22-49 31-21 9-40 13-58 13l-416 0c-18 0-33-6-45-18-12-12-18-27-18-44l0-876c0-17 6-32 18-44 12-12 27-18 45-18l708 0c17 0 32 6 44 18 12 12 18 27 18 44l0 584c0 17-4 36-13 57z m-320 209c13-5 22-10 27-15l204-204c5-5 10-14 14-26l-245 0 0 245z m250-829l-667 0 0 834 334 0 0-271c0-17 6-32 18-44 12-13 27-19 44-19l271 0 0-500 0 0z" horiz-adv-x="857" />

<glyph glyph-name="marker-map" unicode="&#x1f4cd;" d="M759 587c0 144-117 261-261 261-144 0-261-117-261-261 0-207 261-513 261-513 0 0 261 307 261 513z m-390 15c0 71 58 129 129 129 71 0 129-58 129-129 0-71-58-129-129-129-71 0-129 58-129 129z m277-437c-22-30-41-57-58-79 165-10 273-45 313-72-47-31-187-75-403-75-216 0-356 44-403 75 41 27 149 62 313 72-16 22-36 48-58 79-203-20-350-80-350-151 0-87 223-158 498-158 275 0 498 71 498 158 0 71-147 131-350 151z" horiz-adv-x="1000" />

<glyph glyph-name="smartphone-call" unicode="&#x1f4f1;" d="M518 850l-442 0c-36 0-67-30-67-67l0-856c0-37 31-67 67-67l442 0c36 0 66 30 66 67l0 856c0 37-30 67-66 67z m-292-48l141 0c5 0 9-4 9-8 0-5-4-8-9-8l-141 0c-4 0-8 3-8 8 0 4 4 8 8 8z m71-908c-19 0-33 15-33 33 0 19 14 34 33 34 18 0 33-15 33-34 0-18-15-33-33-33z m241 90l-482 0 0 760 482 0 0-760z" horiz-adv-x="594" />

<glyph glyph-name="smartphone-text" unicode="&#x1f4f2;" d="M536 850l-427 0c-59 0-106-45-106-100l0-798c0-55 47-100 106-100l427 0c59 0 106 45 106 100l0 798c0 55-47 100-106 100z m-213-948c-30 0-54 22-54 50 0 27 24 50 54 50 29 0 53-23 53-50 0-28-24-50-53-50z m213 150l-427 0 0 698 427 0 0-698 0 0z" horiz-adv-x="649" />

<glyph glyph-name="18" unicode="&#x1f51e;" d="M316 180v271h-62v70h148v-341z m412 253a80 80 0 0 0-42-71 93 93 0 0 0 60-86c0-61-54-100-139-100s-140 39-140 99a95 95 0 0 0 65 89 86 86 0 0 0-47 71c0 54 48 89 121 89s122-35 122-91z m-179-148c0-30 20-45 59-45s60 15 60 45-22 44-60 44-59-17-59-46z m9 144c0-24 17-38 49-38s49 14 49 38-17 40-49 40-49-16-49-41z m332 53a412 412 0 1 0-258 259v91a500 500 0 1 1 350-350z m-25 234v96h-68v-96h-96v-69h96v-96h68v96h96v69z" horiz-adv-x="1000" />

<glyph glyph-name="code" unicode="&#x1f520;" d="M774-105l0 674c0 45-22 88-53 120l-111 110c-32 32-77 51-121 51l-432 0c-28 0-57-25-57-52l0-903c0-27 29-45 57-45l659 0c28 0 58 17 58 45z m-347 694c0 10 8 19 17 23 14 6 34 14 46 21 11 7 24 25 32 36 5 8 13 12 21 12l29 0c14 0 25-12 25-26l0-242c0-14-11-23-25-23l-33 0c-15 0-23 9-23 23l0 120c0 18-19 30-35 24-4-2-12-4-19-6-16-5-35 6-35 24l0 14z m-105-578c-20-20-47-30-81-30-34 0-62 11-84 33-21 22-31 60-31 115 0 53 11 93 35 117 19 20 46 31 80 31 34 0 61-11 81-32 22-24 35-63 35-118 0-52-13-91-35-116z m0 400c-20-20-47-30-81-30-34 0-62 11-84 33-21 22-31 60-31 115 0 53 11 93 35 117 19 20 46 31 80 31 34 0 61-11 81-32 22-24 35-63 35-118 0-52-13-91-35-116z m290-400c-19-20-47-30-80-30-34 0-63 11-84 33-21 22-32 60-32 115 0 53 11 93 35 117 19 20 47 31 81 31 33 0 61-11 80-32 23-24 35-63 35-118-1-52-12-91-35-116z m-355 601c-5 3-10 5-16 5-5 0-11-2-16-5-4-3-8-9-10-18-4-12-7-34-7-66 0-31 2-52 6-63 4-13 9-18 11-20 5-3 10-5 15-5 6 0 12 2 17 5 4 3 8 9 10 18 4 13 6 35 6 66 0 32-1 53-5 64-4 12-8 18-11 19z m0-400c-5 3-10 5-16 5-5 0-11-2-16-5-4-3-8-9-10-18-4-13-7-34-7-66 0-31 2-52 6-63 4-13 9-18 11-20 5-3 10-5 15-5 6 0 12 2 17 5 4 3 8 9 10 18 4 13 6 35 6 66 0 32-1 52-5 64-4 12-8 18-11 19z m290 0c-5 3-10 5-15 5-6 0-12-2-17-5-4-3-8-9-10-18-4-13-7-34-7-66 0-31 2-52 6-63 4-13 9-18 11-20 5-3 10-5 16-5 5 0 11 2 16 5 4 3 8 9 10 18 4 13 7 35 7 66 0 32-2 53-6 64-4 12-8 18-11 19z" horiz-adv-x="786" />

<glyph glyph-name="time" unicode="&#x1f553;" d="M854 704c-95 94-220 146-354 146-134 0-259-52-354-146-94-95-146-220-146-354 0-134 52-259 146-354 95-94 220-146 354-146 134 0 259 52 354 146 94 95 146 220 146 354 0 134-52 259-146 354z m-354-773c-231 0-419 188-419 419 0 231 188 419 419 419 231 0 419-188 419-419 0-231-188-419-419-419z m166 310l-126 126 0 259c0 22-18 40-40 40-22 0-40-18-40-40l0-276c0-11 4-21 11-29l138-137c8-8 19-12 29-12 10 0 21 4 28 12 16 15 16 41 0 57z" horiz-adv-x="1000" />

<glyph glyph-name="calendar" unicode="&#x1f5d3;" d="M348 305c0 13-10 23-23 23l-77 0c-12 0-22-10-22-23l0-77c0-12 10-22 22-22l77 0c13 0 23 10 23 22l0 77 0 0z m193 0c0 13-10 23-22 23l-78 0c-12 0-22-10-22-23l0-77c0-12 10-22 22-22l78 0c12 0 22 10 22 22l0 77z m194 0c0 13-10 23-23 23l-77 0c-12 0-22-10-22-23l0-77c0-12 10-22 22-22l77 0c13 0 23 10 23 22l0 77z m-387-193c0 12-10 22-23 22l-77 0c-12 0-22-10-22-22l0-78c0-12 10-22 22-22l77 0c13 0 23 10 23 22l0 78 0 0z m193 0c0 12-10 22-22 22l-78 0c-12 0-22-10-22-22l0-78c0-12 10-22 22-22l78 0c12 0 22 10 22 22l0 78z m194 0c0 12-10 22-23 22l-77 0c-12 0-22-10-22-22l0-78c0-12 10-22 22-22l77 0c13 0 23 10 23 22l0 78 0 0z m138 624l0-118c0-54-43-97-97-97l-61 0c-53 0-97 43-97 97l0 118-275 0 0-118c0-54-44-97-98-97l-61 0c-53 0-97 43-97 97l0 118c-46-2-85-40-85-88l0-693c0-48 40-88 88-88l781 0c48 0 87 40 87 88l0 693c0 48-38 86-85 88z m-28-738c0-21-17-38-38-38l-655 0c-21 0-38 17-38 38l0 358c0 21 17 38 38 38l655 0c21 0 38-17 38-38l0-358 0 0z m-661 586l60 0c19 0 34 15 34 34l0 193c0 19-15 34-34 34l-60 0c-18 0-33-15-33-34l0-193c0-19 15-34 33-34z m530 0l61 0c18 0 33 15 33 34l0 193c0 19-15 34-33 34l-61 0c-18 0-33-15-33-34l0-193c0-19 15-34 33-34z" horiz-adv-x="960" />

<glyph glyph-name="wrench" unicode="&#x1f6e0;" d="M910 8l-322 322c-3 3-6 6-10 8l57 61c3 2 6 6 9 9 75-29 164-13 225 48 45 45 67 106 62 169-1 7-6 13-12 15-7 3-15 1-20-4l-103-103-104 26-30 108 103 103c5 5 7 13 4 20-2 6-8 11-15 12-63 5-124-17-169-62-61-61-77-150-48-225-3-3-6-6-10-9l-84-80-154 154c-2 2-4 3-6 5 2 3 4 7 5 10 33-6 92 57 143 108l-147 147c-66-66-114-110-108-143-15-7-29-16-38-26l-21-20c-13-14-21-31-24-48-2-2-4-5-6-7l-8-10c0 0-1-1-1-2l-7-9c-5-6-9-13-12-19-2-2-3-4-4-7-1 0-1 0-1-1l-3-6c-4-7-8-14-11-22l-1-1c-4-10-8-19-11-30l-1-4c-1-4-2-7-3-12l-3-14c-2-9-3-18-4-25l0-5c-1-8-1-16-1-23 1-2 1-4 1-7 0-1 0-3 0-4 0-3 0-6 1-10l1-11c1-2 1-5 1-7 1-4 2-9 3-14l8-26c2-8 10-13 18-13 4 1 8 3 11 6 3 2 5 6 5 10l4 26c0 2 1 5 2 9 1 2 1 4 2 6l3 10c0 1 1 3 1 4 1 1 1 3 2 4 1 2 2 4 3 6 1 4 3 8 5 12 1 2 2 4 3 6 3 4 5 9 8 12 1 1 1 1 1 1l6 9c2 2 3 3 5 5 1 1 2 2 3 4 4 5 9 9 13 13l2 2c4 3 7 6 11 9 2 1 4 2 5 3 2 1 4 3 6 4 3 2 7 5 10 6l8 5 8 4c3 1 5 2 8 3 1 1 3 1 4 2 1 0 3 1 4 1 2 1 3 2 5 2l2 1c3-4 5-8 8-11l153-153-326-312c0-1 0-1 0-1-41-40-47-100-7-140 41-41 96-30 137 10 0 0 0 0 1 1l287 302c2-2 3-4 5-6l322-322c36-36 95-36 131 0 36 36 36 95 0 131z m-788-73c-15-14-39-14-54 0-15 15-15 40 0 55 15 15 39 15 54 0 15-15 15-40 0-55z" horiz-adv-x="958" />

<glyph glyph-name="safe" unicode="&#x1f6e1;" d="M839 593c0 27-1 52-1 77 0 19-15 35-35 35-149 0-263 43-358 135-14 13-36 13-49 0-95-92-209-135-359-135-19 0-35-16-35-35 0-25 0-50-1-77-5-252-11-596 408-741 3-1 7-2 11-2 4 0 8 1 12 2 419 145 412 489 407 741z m-419-671c-359 131-354 417-349 669 0 15 1 30 1 44 140 6 252 49 348 132 96-83 208-126 348-132 1-14 1-29 1-44 5-252 10-538-349-669z m121 550l-169-169-72 72c-14 13-36 13-50 0-13-14-13-36 0-50l97-97c7-6 16-10 25-10 9 0 18 4 25 10l193 194c14 14 14 36 0 50-13 13-36 13-49 0z" horiz-adv-x="844" />
</font>
</defs>
</svg>
